P3
3 2
255
255   0   98
  0 255   177
  0   0 255
255 255   0
255 255 255
0   255   0
